# xmcd
#
# Track frame offsets:
#	150
#	23305
#	48332
#	72322
#	95503
#	118402
#	145130
#	166447
#	184756
#	205805
#
# Disc length: 3068 seconds
#
# Revision: 1
# Processed by: cddbd v1.5.2PL0 Copyright (c) Steve Scherf et al.
# Submitted via: EZCDAudioConverter 8.0.2.1
#
DISCID=890bfa0a
DTITLE=Mỹ Dzung - Vol 03. Từ Lúc Em Đi
DYEAR=2011
DGENRE=Pop
TTITLE0=Mỹ Dzung - Xin còn gọi tên nhau
TTITLE1=Mỹ Dzung - Không bao giờ quên anh
TTITLE2=Mỹ Dzung - Trộm nhìn nhau
TTITLE3=Mỹ Dzung, Đàm Vĩnh Hưng - Lâu đài tình ái
TTITLE4=Mỹ Dzung - Một mai em đi
TTITLE5=Mỹ Dzung - Mùa đông của anh
TTITLE6=Mỹ Dzung - Ngày buồn
TTITLE7=Mỹ Dzung - Sao anh vô tình
TTITLE8=Mỹ Dzung - Mất nhau rồi
TTITLE9=Mỹ Dzung, Lê Hoàng Hiệp - Hai mùa noel
EXTD=
EXTT0=
EXTT1=
EXTT2=
EXTT3=
EXTT4=
EXTT5=
EXTT6=
EXTT7=
EXTT8=
EXTT9=
PLAYORDER=
